<svg width="48" height="48" viewBox="0 0 48 48" fill="none" xmlns="http://www.w3.org/2000/svg">
	<path
		d="M20.486 7.51389C19.3728 6.39795 18.0501 5.51302 16.5937 4.90996C15.1374 4.30691 13.5763 3.99763 12 3.99989C10.4238 3.99763 8.86265 4.30691 7.40633 4.90996C5.95001 5.51302 4.62724 6.39795 3.51404 7.51389"
		stroke="black" stroke-width="3" />
	<path
		d="M7.75803 11.7579C8.31439 11.1998 8.97557 10.7572 9.70356 10.4555C10.4316 10.1538 11.212 9.99896 12 9.99988C12.7881 9.99896 13.5685 10.1538 14.2965 10.4555C15.0245 10.7572 15.6857 11.1998 16.242 11.7579"
		stroke="black" stroke-width="3" />
	<path d="M32 39.9999H24M24 39.9999H8.00003L4.00003 27.9999H20L24 39.9999Z" stroke="black"
		stroke-width="3" />
	<path
		d="M39 16.9999C39 18.8564 38.2625 20.6369 36.9498 21.9496C35.637 23.2624 33.8565 23.9999 32 23.9999C30.1435 23.9999 28.363 23.2624 27.0503 21.9496C25.7375 20.6369 25 18.8564 25 16.9999C25 15.1434 25.7375 13.3629 27.0503 12.0501C28.363 10.7374 30.1435 9.99988 32 9.99988C33.8565 9.99988 35.637 10.7374 36.9498 12.0501C38.2625 13.3629 39 15.1434 39 16.9999Z"
		stroke="black" stroke-width="3" />
	<path
		d="M36 40H44V32.694C40.2503 30.9143 36.1507 29.9939 32 30C29.94 30 27.932 30.222 26 30.644"
		stroke="black" stroke-width="3" />
</svg>