<svg xmlns="http://www.w3.org/2000/svg" version="1.1" viewBox="0 0 106.68 50">
	<path
		d="M30.13,1.41c.18.03.32.11.42.24.1.13.15.29.13.46-.03.19-.11.33-.26.44-.14.1-.31.14-.49.1-.46-.09-.94-.06-1.44.09-1.34.48-2.66,1.36-3.96,2.66-1.3,1.3-2.51,2.72-3.61,4.27-1.11,1.55-2.03,2.92-2.78,4.12-3.31,5.47-6.21,11.16-8.7,17.06-2.49,5.9-4.68,11.91-6.54,18.02-.04.14-.13.25-.26.32s-.26.08-.4.03c-.14-.04-.25-.13-.31-.25s-.08-.25-.04-.4c1.09-4.01,2.22-8.03,3.4-12.05,1.04-3.61,2.06-7.23,3.07-10.86,1-3.63,1.93-7.25,2.77-10.87.12-.54.22-1.08.3-1.62,0-.06.02-.13.03-.19.02-.09.03-.18.04-.26,0-.06-.02-.11-.07-.13-.05-.02-.1-.01-.14.03-.25.31-.49.63-.7.97-.57.94-1.09,1.91-1.58,2.91-.49.95-.96,1.91-1.42,2.87-.72,1.56-1.49,3.09-2.32,4.6-.13.24-.28.48-.44.73-.02.02-.04.04-.05.05-.13.22-.31.39-.53.53-.05.03-.12.04-.2.04-.08-.02-.15-.05-.2-.11-.16-.18-.24-.44-.24-.79s.02-.66.07-.95c0-.07.02-.14.03-.2.24-1.62.56-3.22.96-4.8.07-.31.14-.63.22-.94.09-.42.22-.97.38-1.64.26-1.11.54-2.35.84-3.74.3-1.39.51-2.68.64-3.89.13-1.2.09-2.08-.13-2.63h0c-.29-.47-.64-.61-1.06-.43-.42.18-.82.49-1.19.92-.38.43-.66.79-.84,1.09-.82,1.21-1.36,2.53-1.62,3.96-.03.16-.04.36-.04.6s.04.45.11.63c.08.18.22.27.42.27.14,0,.26.03.36.12s.15.21.16.35c0,.17-.05.31-.19.4-.13.1-.28.13-.44.08-.59-.17-.94-.49-1.04-.97-.1-.48-.08-1,.08-1.56s.33-1.04.52-1.45c.21-.48.53-1.08.98-1.82s.95-1.4,1.5-1.99c.56-.59,1.11-.89,1.64-.91.39.04.67.25.84.61.14.34.22.72.23,1.13,0,.41,0,.81-.04,1.19,0,.05,0,.1-.01.15-.15,1.41-.37,2.81-.65,4.21-.28,1.39-.58,2.78-.9,4.17-.56,2.3-1.02,4.62-1.38,6.94-.04.32-.07.64-.07.96,0,.16,0,.31.03.46.02.09.05.16.09.22,0,0,0,.01.01.01.08-.05.15-.12.22-.21s.13-.17.2-.26c.15-.22.3-.46.43-.7.64-1.2,1.24-2.41,1.79-3.65.13-.28.26-.56.39-.84.07-.17.15-.34.23-.51.62-1.35,1.26-2.68,1.93-4,.05-.1.11-.21.18-.34.26-.52.59-1.09,1-1.72.4-.62.8-.97,1.2-1.04,0,0,.02-.01.03-.01.03,0,.06,0,.09.01.03,0,.06.02.09.03.02,0,.04.02.07.04,0,0,.02.02.04.03.03.03.04.05.05.08.03.04.04.08.05.11.04.14.06.28.05.4h0c0,.32-.04.61-.08.88-.09.57-.19,1.12-.3,1.67-.77,3.45-1.62,6.92-2.53,10.41-.92,3.49-1.86,6.97-2.82,10.46-.15.58-.31,1.15-.47,1.71,0,.04,0,.08.03.12.03.03.07.04.11.04.04,0,.07-.03.09-.07,1.42-3.5,3.01-7.17,4.77-11.01,1.76-3.85,3.62-7.52,5.57-11.03,1.95-3.51,3.92-6.51,5.9-8.99,1.98-2.48,3.9-4.11,5.75-4.89.64-.24,1.3-.33,2-.26Z" />
	<path
		d="M21.69,20.99s.02.02.02.04,0,.04-.02.05c-.06.08-.13.17-.22.27-.4.51-.91,1.13-1.55,1.85-.64.72-1.29,1.35-1.97,1.89-.67.54-1.27.79-1.79.76-.22-.04-.42-.13-.6-.28-.18-.15-.29-.33-.36-.55-.13-.49-.11-1,.06-1.52.17-.52.38-.98.65-1.4.16-.27.38-.56.67-.86.28-.31.6-.55.94-.73.34-.18.68-.21,1.02-.09,0,0,.02,0,.03,0s.02.01.03.02c.08.04.15.09.2.18.05.08.08.16.09.23.02.12.02.21,0,.27h0c-.13.54-.37,1.01-.73,1.42-.5.63-1.16.99-1.97,1.09-.02,0-.03,0-.04.03-.17.39-.26.73-.26,1.02s.12.48.36.56c.37.04.8-.1,1.31-.42s.99-.71,1.46-1.15c.47-.44.84-.79,1.1-1.06.5-.52.98-1.06,1.44-1.62.02-.02.04-.03.05-.03.02,0,.04,0,.05.02ZM17.84,21.49s.01-.02,0-.03c0-.01-.01-.02-.03-.03-.01,0-.02,0-.03,0-.29.22-.59.54-.9.97,0,.02-.01.03,0,.05,0,.01.01.02.03.03s.03,0,.05,0c.38-.25.67-.58.89-.98Z" />
	<path
		d="M26.17,20.93s.09-.05.13-.03c.04.01.07.04.09.08.01.04,0,.08-.03.13-.24.25-.49.5-.74.74-1.02,1.07-2.1,2.08-3.24,3.03-.21.16-.42.32-.65.49-.27.23-.58.39-.94.47h-.18c-.31-.03-.53-.15-.69-.38-.15-.22-.23-.48-.24-.77,0-.49.07-.99.23-1.48.16-.49.36-.95.61-1.38.28-.53.67-.99,1.17-1.38.13-.09.28-.12.44-.09.16.03.28.11.37.25.1.14.13.29.1.44-.03.15-.11.28-.25.38-.4.31-.79.81-1.16,1.52-.37.71-.54,1.33-.53,1.86,0,.05.02.1.07.15,0,0,0,.01.01.01.4,0,.97-.28,1.71-.82.73-.54,1.45-1.13,2.16-1.77s1.22-1.13,1.56-1.46ZM22.61,19.54c-.19-.08-.37-.2-.53-.36-.17-.16-.24-.35-.22-.59.04-.26.14-.49.28-.67.14-.19.3-.28.47-.28s.31.09.43.28c.12.19.14.41.07.67-.04.13-.08.27-.11.4-.04.18-.09.33-.15.44-.05.11-.13.15-.24.1Z" />
	<path
		d="M32.59,12.01c-.02.22-.08.43-.19.62,0,.03-.02.05-.04.08-.11.21-.22.41-.35.61-.74,1.11-1.53,2.25-2.39,3.42-.57.78-1.1,1.54-1.6,2.27-.46.65-.91,1.3-1.36,1.95,0,.03-.02.05-.03.07-.05.13-.1.25-.15.36-.02.05-.04.1-.07.16-.23.56-.47,1.23-.72,2.03-.26.79-.35,1.44-.29,1.92,0,0,.02,0,.04-.01.36-.11.77-.45,1.23-1.03.46-.58.82-1.2,1.09-1.85.26-.65.29-1.15.06-1.49-.08-.07-.1-.15-.07-.25.04-.09.11-.15.23-.15.61.04,1.23.06,1.85.08.11,0,.22.01.32.01.47.03.93.04,1.4.03h.09c.05,0,.1,0,.14.03.04.03.06.07.07.11,0,.05,0,.1-.03.14s-.07.07-.12.07c-.05,0-.1.01-.13.01-.25,0-.5.01-.74.01h-.09c-.76,0-1.53-.02-2.29-.04.14.4.18.79.11,1.19-.2,1.02-.62,1.95-1.25,2.79-.27.38-.62.73-1.06,1.04-.44.32-.9.36-1.39.13-.35-.26-.51-.63-.49-1.11s.1-.92.22-1.31c0-.04.01-.07.01-.11.58-1.88,1.33-3.68,2.26-5.42.13-.29.44-.85.92-1.7.48-.84,1.04-1.73,1.67-2.64.63-.92,1.23-1.62,1.79-2.1.57-.48,1.01-.5,1.33-.05,0,.02,0,.03.01.04h0v.07ZM25.37,25.49h0s0,0,0,0ZM31.6,13.07c.03-.05.05-.11.08-.16.05-.09.1-.18.15-.27.03-.06.03-.12,0-.16s-.07-.08-.12-.09c-.05-.02-.11,0-.16.04-.12.11-.2.19-.26.26-.47.53-.89,1.1-1.27,1.7-.38.6-.74,1.21-1.09,1.83-.41.75-.81,1.52-1.19,2.31,1.14-1.36,2.19-2.78,3.15-4.26.24-.39.48-.78.7-1.19Z" />
	<path
		d="M36.12,20.99s.02.02.02.04,0,.04-.02.05c-.06.08-.13.17-.22.27-.4.51-.91,1.13-1.55,1.85-.64.72-1.29,1.35-1.97,1.89-.67.54-1.27.79-1.79.76-.22-.04-.42-.13-.6-.28-.18-.15-.29-.33-.36-.55-.13-.49-.11-1,.06-1.52.17-.52.38-.98.65-1.4.16-.27.38-.56.67-.86.28-.31.6-.55.94-.73.34-.18.68-.21,1.02-.09,0,0,.02,0,.03,0s.02.01.03.02c.08.04.15.09.2.18.05.08.08.16.09.23.02.12.02.21,0,.27h0c-.13.54-.37,1.01-.73,1.42-.5.63-1.16.99-1.97,1.09-.02,0-.03,0-.04.03-.17.39-.26.73-.26,1.02s.12.48.36.56c.37.04.8-.1,1.31-.42s.99-.71,1.46-1.15c.47-.44.84-.79,1.1-1.06.5-.52.98-1.06,1.44-1.62.02-.02.04-.03.05-.03.02,0,.04,0,.05.02ZM32.26,21.49s.01-.02,0-.03c0-.01-.01-.02-.03-.03-.01,0-.02,0-.03,0-.29.22-.59.54-.9.97,0,.02-.01.03,0,.05,0,.01.01.02.03.03s.03,0,.05,0c.38-.25.67-.58.89-.98Z" />
	<path
		d="M42.02,20.96s.05.06.05.1-.02.07-.05.1c-.43.31-.89.59-1.36.82-.61.32-1.26.51-1.95.57-.57.02-.95-.18-1.16-.61-.03-.05-.07-.09-.12-.09-.05,0-.1,0-.13.05-.37.43-.71.88-1.01,1.35-.66,1-1.24,2.04-1.73,3.14-.1.13-.21.2-.34.2s-.24-.05-.33-.14-.12-.22-.09-.37c.43-1.9,1.1-3.7,2.01-5.42.08-.13.19-.22.32-.26s.27-.02.4.05c.13.08.22.19.26.34.04.14.01.28-.07.42-.42.7-.8,1.44-1.12,2.21.09-.14.18-.29.26-.43.57-1.04,1.22-2.03,1.97-2.95.03-.03.05-.05.06-.07.01-.02.02-.03.03-.04.13-.14.28-.2.44-.18s.29.1.38.23c.09.13.11.29.05.48h-.01c-.04.12-.11.22-.19.3,0,0-.02.01-.03.01-.24.23-.41.51-.5.82-.02.19.03.33.14.41.11.09.25.14.42.16.17.02.33.03.48.02.5-.04.99-.18,1.47-.39.47-.22.9-.49,1.29-.82.03-.02.05-.03.08-.03.03,0,.05,0,.08.02Z" />
	<path
		d="M50.07,7.95c0,.1,0,.18-.03.26-.15.38-.33.74-.54,1.09-.06.12-.13.23-.19.35-.44.79-.89,1.57-1.36,2.35-1.62,2.7-3.3,5.36-5.04,7.99-.38.79-.73,1.6-1.05,2.42-.32.82-.58,1.66-.77,2.51-.04.2-.06.4-.07.59,0,.08,0,.16.02.24.01.08.04.14.07.18,0,.02.03.03.05.04.39.03.89-.31,1.52-1,.63-.69,1.23-1.45,1.81-2.27s.98-1.42,1.2-1.79c.04-.04.08-.06.13-.05.05,0,.08.03.11.07.02.04.02.08,0,.13-.5.75-1,1.51-1.51,2.25-.51.75-1.07,1.46-1.67,2.14-.03.04-.06.07-.09.11-.22.23-.47.46-.76.68-.29.22-.59.3-.9.25-.47-.2-.67-.66-.62-1.37.05-.72.23-1.5.51-2.35.29-.84.55-1.55.79-2.1.07-.18.13-.32.18-.43,1.59-3.77,3.5-7.36,5.73-10.78.25-.38.52-.75.81-1.12.03-.04.05-.07.08-.11.2-.27.44-.49.74-.67.05-.03.14-.05.26-.07.07,0,.15,0,.24.03.08.03.15.07.21.13h.01c.09.19.13.29.13.3Z" />
	<path
		d="M50.1,20.99s.02.02.02.04c0,.02,0,.04-.02.05-.06.08-.13.17-.22.27-.4.51-.91,1.13-1.55,1.85-.64.72-1.29,1.35-1.97,1.89-.67.54-1.27.79-1.79.76-.22-.04-.42-.13-.6-.28-.18-.15-.29-.33-.36-.55-.13-.49-.11-1,.06-1.52.17-.52.38-.98.65-1.4.16-.27.38-.56.67-.86.28-.31.6-.55.94-.73.34-.18.68-.21,1.02-.09,0,0,.02,0,.03,0s.02.01.03.02c.08.04.15.09.2.18s.08.16.09.23c.02.12.02.21,0,.27h0c-.13.54-.37,1.01-.73,1.42-.5.63-1.16.99-1.97,1.09-.02,0-.03,0-.04.03-.17.39-.26.73-.26,1.02s.12.48.36.56c.37.04.8-.1,1.31-.42.5-.33.99-.71,1.46-1.15s.84-.79,1.1-1.06c.5-.52.98-1.06,1.44-1.62.02-.02.04-.03.05-.03.02,0,.04,0,.05.02ZM46.24,21.49s.01-.02,0-.03c0-.01-.01-.02-.03-.03-.01,0-.02,0-.03,0-.29.22-.59.54-.9.97,0,.02-.01.03,0,.05,0,.01.01.02.03.03.01,0,.03,0,.05,0,.38-.25.67-.58.89-.98Z" />
	<path
		d="M57.66,20.89s.06.06.06.1c0,.04,0,.08-.03.11-.11.12-.23.25-.38.4-.4.45-.87.95-1.42,1.5-.55.55-1.11,1.04-1.67,1.45-.57.41-1.08.62-1.54.63h-.08c-.43-.11-.63-.47-.59-1.09.04-.62.17-1.26.39-1.91,0-.03,0-.05,0-.07s-.03-.03-.05-.03-.04,0-.06.02c-.23.24-.54.57-.93.97-.33.35-.67.7-1,1.05-.33.35-.61.64-.84.86-.13.13-.24.27-.35.44-.08.14-.19.26-.32.36h0s-.06.05-.09.08h-.01s-.02,0-.03.01c-.03,0-.05.02-.07.02-.02,0-.04.01-.05.02-.02,0-.04,0-.05.01-.21.02-.37-.04-.5-.16-.13-.13-.18-.29-.18-.49.04-.36.12-.7.26-1.01.02-.04.04-.09.05-.13.28-.68.58-1.35.92-2.01.19-.39.38-.78.57-1.17.03-.24.15-.41.37-.49.22-.08.43-.02.63.2.05.08.09.17.11.26v.13c-.02.15-.05.29-.11.42,0,0,0,.02-.01.03-.12.28-.24.55-.38.81,0,.03-.02.05-.03.07-.14.29-.29.58-.43.86-.17.33-.34.67-.51,1,0,.02,0,.03,0,.05,0,.01.02.02.03.03.02,0,.03,0,.04-.02.17-.17.34-.35.5-.53.28-.31.55-.61.82-.92.33-.39.67-.77,1.02-1.15.04-.04.07-.07.11-.11.37-.41.79-.76,1.25-1.05.06-.04.14-.08.24-.09.05-.02.14-.02.26,0,0,0,0-.01.01,0,.02,0,.04.02.08.03.04.02.09.04.13.08.04.04.07.07.09.11.02.02.03.04.03.05s.01.03.02.04c0,.03.02.06.02.09,0,.03,0,.06,0,.09,0,.03-.01.05-.01.07v.04h0c-.1.33-.28.75-.55,1.28-.23.46-.42.91-.59,1.34-.17.44-.23.77-.17,1,0,0,.02.02.03.03h.01s.02.01.04.01h.01c.54,0,1.12-.25,1.75-.74s1.14-.94,1.52-1.33c.52-.51,1.01-1.06,1.46-1.63.03-.03.06-.04.1-.05.04,0,.07,0,.1.03Z" />
	<path
		d="M65.05,20.89s.06.06.06.1c0,.04,0,.08-.03.11-.11.12-.23.25-.38.4-.4.45-.87.95-1.42,1.5-.55.55-1.11,1.04-1.67,1.45-.57.41-1.08.62-1.54.63h-.08c-.43-.11-.63-.47-.59-1.09.04-.62.17-1.26.39-1.91,0-.03,0-.05,0-.07s-.03-.03-.05-.03-.04,0-.06.02c-.23.24-.54.57-.93.97-.33.35-.67.7-1,1.05-.33.35-.61.64-.84.86-.13.13-.24.27-.35.44-.08.14-.19.26-.32.36h0s-.06.05-.09.08h-.01s-.02,0-.03.01c-.03,0-.05.02-.07.02-.02,0-.04.01-.05.02-.02,0-.04,0-.05.01-.21.02-.37-.04-.5-.16-.13-.13-.18-.29-.18-.49.04-.36.12-.7.26-1.01.02-.04.04-.09.05-.13.28-.68.58-1.35.92-2.01.19-.39.38-.78.57-1.17.03-.24.15-.41.37-.49.22-.08.43-.02.63.2.05.08.09.17.11.26v.13c-.02.15-.05.29-.11.42,0,0,0,.02-.01.03-.12.28-.24.55-.38.81,0,.03-.02.05-.03.07-.14.29-.29.58-.43.86l-.51,1s0,.03,0,.05c0,.01.02.02.03.03.02,0,.03,0,.04-.02.17-.17.34-.35.5-.53.28-.31.55-.61.82-.92.33-.39.67-.77,1.02-1.15.04-.04.07-.07.11-.11.37-.41.79-.76,1.25-1.05.06-.04.14-.08.24-.09.05-.02.14-.02.26,0,0,0,0-.01.01,0,.02,0,.04.02.08.03.04.02.09.04.13.08.04.04.07.07.09.11.02.02.03.04.03.05s.01.03.02.04c0,.03.02.06.02.09,0,.03,0,.06,0,.09,0,.03-.01.05-.01.07v.04h0c-.1.33-.28.75-.55,1.28-.23.46-.42.91-.59,1.34-.17.44-.23.77-.17,1,0,0,.02.02.03.03h.01s.02.01.04.01h.01c.54,0,1.12-.25,1.75-.74s1.14-.94,1.52-1.33c.52-.51,1.01-1.06,1.46-1.63.03-.03.06-.04.1-.05.04,0,.07,0,.1.03Z" />
	<path
		d="M98.63,1.72c1.09.22,2.15.6,3.2,1.13,1.04.53,1.9,1.23,2.58,2.09s1.01,1.92,1,3.17c0,.1-.02.21-.03.34,0,.05,0,.09-.01.13h0s-.01.09-.01.13c-.02.12-.04.23-.07.34-.36,1.45-1.04,2.73-2.04,3.85-1,1.12-2.1,2.1-3.28,2.95-1.85,1.32-3.82,2.45-5.89,3.38s-4.21,1.68-6.42,2.24c-.92.24-1.85.46-2.79.65-.08.03-.13.08-.14.16-.01.08.02.15.09.2,1.11.67,2.07,1.26,2.87,1.79.34.22.63.4.86.55,3.84,2.42,7.46,5.13,10.87,8.14.15.15.21.31.16.47-.04.16-.14.28-.3.34-.15.07-.32.04-.5-.09,0,0-.01,0-.01-.01-2.31-2.49-4.87-4.68-7.67-6.58-2.6-1.82-5.36-3.35-8.29-4.57-.04-.02-.09-.02-.14,0-.05.02-.08.05-.1.11-.66,1.57-1.29,3.16-1.89,4.76-.05.13-.14.22-.26.27-.12.05-.24.06-.36.01-.13-.05-.22-.14-.27-.26-.05-.12-.06-.24-.01-.36.67-1.42,1.33-2.85,1.98-4.3.03-.06.02-.12-.01-.18-.04-.05-.09-.08-.16-.08-.86,0-1.72-.07-2.58-.24-.26-.06-.48-.19-.65-.39-.18-.2-.27-.43-.29-.7,0-.06,0-.13,0-.2,0-.04.02-.09.03-.13,0,0,0-.01.01-.01,0-.05.03-.11.05-.16.05-.11.12-.2.21-.27.04-.04.09-.07.12-.09.03,0,.05-.02.07-.03l.05-.03h.01c.39-.14.91-.13,1.55.04.64.17,1.33.44,2.09.81.05.03.11.03.16.01.05-.02.08-.05.1-.11,1.6-3.6,3.09-7.25,4.46-10.95.31-.83.59-1.66.86-2.49.06-.2.18-.34.36-.43.17-.09.36-.1.56-.04.22.07.38.21.46.42.08.21.07.42-.04.63-1.23,2.33-2.38,4.7-3.45,7.1-.9,2.02-1.77,4.05-2.63,6.08-.02.04-.02.09,0,.13.02.05.05.08.09.11,0,0,.02,0,.03.01.03.02.05.03.08.03,2.59.02,5.09-.44,7.51-1.39,2.11-.77,4.12-1.76,6.01-2.97.97-.62,1.98-1.36,3.01-2.23,1.04-.87,1.95-1.83,2.75-2.88.79-1.05,1.31-2.16,1.56-3.32,0-.07.02-.15.03-.23,0-.04.02-.09.03-.12v-.13c0-.09.01-.17.01-.24-.04-1.21-.47-2.19-1.29-2.95-.81-.75-1.79-1.33-2.93-1.73s-2.23-.68-3.26-.83c-2.1-.33-4.38-.41-6.83-.24-2.45.17-4.88.62-7.28,1.34-2.4.72-4.58,1.75-6.53,3.08-1.96,1.33-3.49,2.99-4.6,4.97-.39.74-.66,1.51-.83,2.33s-.19,1.63-.07,2.46c.11.73.35,1.42.72,2.06s.87,1.17,1.5,1.56c.24.14.51.25.8.3.29.06.57.03.84-.07.13-.05.25-.06.37-.01s.21.13.26.26c.06.14.06.28,0,.41-.06.13-.17.22-.32.26-.66.16-1.28.09-1.87-.23-.59-.31-1.09-.73-1.48-1.24-.55-.71-.93-1.5-1.13-2.36s-.26-1.73-.15-2.62c.11-.86.34-1.69.69-2.48s.78-1.54,1.29-2.24c1.03-1.38,2.24-2.56,3.63-3.57,1.4-1,2.88-1.85,4.44-2.55,2.82-1.25,5.84-2.1,9.07-2.56,3.22-.46,6.35-.37,9.39.26Z" />
	<path
		d="M97.86,23.83c.18,0,.33.1.45.3.12.2.14.43.06.7-.05.13-.09.27-.12.42-.04.2-.08.35-.14.47-.06.12-.14.15-.25.11-.2-.09-.39-.22-.57-.38-.18-.16-.26-.36-.23-.61.04-.29.14-.53.3-.72.15-.19.32-.29.5-.29Z" />
</svg>