<?xml version="1.0" standalone="no"?>
<!DOCTYPE svg PUBLIC "-//W3C//DTD SVG 20010904//EN"
 "http://www.w3.org/TR/2001/REC-SVG-20010904/DTD/svg10.dtd">
<svg version="1.0" xmlns="http://www.w3.org/2000/svg"
 width="1024.000000pt" height="1024.000000pt" viewBox="0 0 1024.000000 1024.000000"
 preserveAspectRatio="xMidYMid meet">
<metadata>
Created by potrace 1.16, written by Peter Selinger 2001-2019
</metadata>
<g transform="translate(0.000000,1024.000000) scale(0.100000,-0.100000)"
fill="#000000" stroke="none">
<path d="M4432 9171 c-31 -23 -51 -52 -87 -125 -59 -120 -128 -196 -254 -283
-53 -37 -127 -88 -164 -115 -63 -45 -67 -47 -53 -21 15 29 108 121 234 231 39
35 83 82 96 105 22 38 60 167 51 175 -9 10 -28 -14 -49 -61 -34 -77 -68 -106
-231 -200 -92 -53 -235 -185 -235 -217 0 -11 -7 -23 -15 -26 -8 -3 -17 -16
-21 -27 -15 -52 -62 -140 -106 -198 -16 -20 -28 -41 -28 -45 -1 -16 -36 -51
-68 -68 -29 -15 -32 -15 -32 -1 0 9 14 42 30 75 17 33 26 60 20 60 -24 0 -96
-88 -119 -145 -21 -54 -53 -107 -38 -64 3 9 8 38 12 65 6 46 5 48 -10 29 -17
-22 -55 -135 -56 -169 0 -19 -1 -19 -10 4 -6 14 -8 42 -6 63 3 20 1 37 -3 37
-10 0 -16 -30 -26 -112 -6 -57 -18 -75 -27 -40 -3 9 -5 1 -6 -18 -1 -33 -26
-95 -53 -132 -15 -21 4 -48 34 -48 17 0 20 -5 14 -30 -10 -53 -68 -181 -100
-223 -17 -22 -49 -49 -71 -59 -71 -34 -70 -34 -67 -69 1 -19 3 -58 4 -88 2
-48 6 -59 38 -93 45 -47 60 -48 60 -5 0 50 30 72 96 72 l54 0 0 -51 c0 -59 13
-74 80 -93 25 -7 59 -28 78 -47 l34 -34 -7 37 c-4 20 -15 54 -26 75 -11 21
-16 38 -11 38 18 0 120 -74 155 -113 l39 -42 -20 40 c-18 37 -66 90 -117 130
-19 16 -19 16 7 11 14 -3 34 -9 44 -13 29 -11 6 17 -24 29 -22 9 -24 12 -9 15
26 7 83 -15 118 -44 42 -36 47 -23 7 20 -19 20 -52 40 -76 48 -47 14 -49 23
-11 46 24 15 29 14 59 -1 18 -9 35 -14 38 -12 8 9 -10 27 -49 46 -21 11 -39
25 -39 31 0 26 48 99 101 151 80 80 148 111 262 116 48 3 87 7 87 9 0 3 -8 27
-17 54 -17 48 -17 49 3 70 14 14 36 21 63 22 47 2 49 16 3 36 -18 8 -32 18
-32 22 0 3 21 16 48 27 163 70 275 50 357 -67 28 -40 30 -49 30 -129 0 -81 -3
-93 -41 -172 -77 -160 -233 -348 -481 -579 -129 -121 -292 -297 -375 -406
-195 -255 -276 -496 -266 -787 3 -84 1 -95 -12 -88 -16 9 -64 73 -131 178 -44
67 -61 74 -100 43 -35 -27 -90 -53 -87 -41 4 14 -133 130 -154 130 -29 0 -38
-32 -30 -104 5 -36 11 -68 15 -72 11 -11 27 7 27 31 0 32 20 42 37 20 20 -28
16 -41 -16 -55 -16 -6 -41 -25 -57 -41 -21 -22 -37 -29 -67 -29 -34 0 -48 -7
-89 -46 l-50 -47 55 7 c32 4 58 3 61 -2 3 -6 -3 -31 -15 -56 -28 -65 -15 -101
57 -156 31 -23 58 -39 61 -37 9 10 -17 74 -37 92 -24 22 -25 48 -4 80 16 24
73 65 91 65 5 0 7 -29 5 -66 -5 -75 10 -106 28 -58 31 80 59 120 102 147 l46
29 41 -22 c36 -18 63 -52 187 -238 277 -415 233 -365 497 -565 67 -51 68 -53
63 -90 -12 -75 -81 -190 -169 -284 -162 -171 -191 -226 -164 -307 9 -25 21
-80 28 -121 11 -64 17 -79 39 -91 14 -9 38 -33 53 -55 36 -50 51 -42 42 22
l-7 49 27 -10 c45 -17 68 -13 62 10 -5 18 -2 20 16 14 12 -4 60 -7 105 -6 103
1 161 26 210 91 18 24 31 45 30 47 -2 1 -32 -11 -67 -28 -52 -25 -78 -31 -137
-32 -64 -1 -75 2 -98 23 -32 30 -32 44 -4 98 l23 42 -19 71 c-15 59 -16 73 -5
86 20 25 117 88 189 124 36 18 79 43 96 56 l32 23 53 -38 c30 -21 74 -49 99
-61 25 -13 77 -44 115 -69 39 -26 141 -89 227 -140 86 -51 161 -98 167 -105 6
-8 -4 -29 -34 -70 -68 -90 -97 -201 -76 -286 18 -70 42 -119 61 -125 19 -6 42
-55 55 -113 8 -37 130 -204 194 -267 23 -21 41 -45 41 -52 0 -20 -81 -61 -196
-99 -104 -33 -131 -47 -217 -114 -42 -32 -215 -90 -269 -90 -18 0 -49 -4 -68
-9 -53 -14 -117 -21 -102 -12 8 5 -5 16 -42 35 l-54 27 -42 -21 c-23 -12 -49
-19 -57 -16 -15 6 -127 -29 -150 -46 -6 -5 -33 -6 -60 -3 -47 7 -49 6 -83 -36
-68 -84 -84 -136 -22 -69 38 39 41 40 105 40 36 0 78 5 93 10 23 9 218 35 339
46 33 2 32 1 -8 -6 -59 -10 -116 -48 -171 -112 -23 -27 -48 -48 -57 -48 -8 0
-24 -7 -35 -15 -10 -8 -36 -19 -56 -25 -41 -12 -66 -41 -91 -110 -23 -63 -22
-67 12 -31 34 37 147 91 189 91 18 0 53 17 93 45 l64 45 96 -2 c68 -2 92 -6
82 -13 -8 -6 -19 -21 -26 -34 -17 -34 -103 -85 -111 -65 -3 8 -15 14 -26 14
-22 0 -27 -15 -9 -26 6 -3 9 -14 6 -24 -3 -12 1 -19 12 -19 9 0 33 -4 53 -7
30 -5 47 0 90 24 29 17 70 34 91 37 24 5 57 23 85 48 91 79 136 82 274 22 44
-19 85 -35 92 -35 7 0 21 -7 32 -15 18 -13 18 -14 -4 -8 -15 4 -41 -3 -70 -18
-35 -17 -61 -22 -101 -21 -65 3 -100 -17 -165 -92 -29 -34 -57 -57 -75 -61
-18 -4 -39 -21 -55 -44 -22 -31 -25 -43 -17 -64 12 -32 1 -42 -57 -55 -58 -13
-91 -37 -97 -70 -3 -15 -10 -43 -15 -63 -6 -20 -10 -41 -10 -48 0 -21 16 -11
27 19 12 33 66 70 103 70 14 0 37 7 53 14 25 14 27 13 27 -4 0 -11 -7 -38 -16
-60 -18 -45 -13 -95 12 -126 15 -18 15 -18 10 6 -3 13 0 44 6 68 9 37 17 46
58 67 53 27 147 115 171 160 13 26 31 36 121 67 154 53 182 73 201 145 8 32
15 49 16 38 0 -11 -8 -44 -18 -72 -17 -51 -17 -54 1 -105 23 -67 23 -67 -12
-80 -43 -14 -54 -40 -35 -77 8 -17 15 -54 15 -84 0 -33 6 -60 16 -73 15 -18
15 -18 9 5 -11 39 14 106 62 160 35 40 48 66 59 114 13 54 22 70 77 125 59 60
64 63 102 58 22 -2 69 -12 104 -22 57 -16 70 -16 125 -4 89 20 116 17 144 -15
20 -23 23 -37 20 -81 -3 -58 5 -60 27 -7 34 82 15 140 -62 189 l-57 37 -61
-12 c-57 -12 -67 -11 -143 15 -45 14 -90 32 -99 40 -17 12 -16 14 11 42 15 17
77 56 137 88 59 31 150 90 201 130 70 56 104 76 142 84 67 14 116 52 116 89 0
43 -21 55 -89 48 l-58 -5 4 42 c6 47 -20 121 -89 259 -30 61 -36 82 -28 97 10
19 56 35 180 64 233 55 547 -36 775 -225 206 -171 314 -383 317 -619 1 -102
-24 -323 -46 -405 -8 -27 -19 -72 -25 -100 -20 -85 -114 -270 -171 -337 -8
-10 -33 -39 -55 -66 -44 -53 -230 -198 -310 -241 -180 -98 -480 -194 -735
-236 -138 -23 -372 -30 -530 -16 -363 32 -587 99 -985 296 -182 90 -408 179
-480 190 -42 6 -82 19 -130 42 -30 14 -42 17 -30 7 l20 -16 -20 6 c-100 28
-336 58 -431 55 l-39 -2 40 -7 c36 -6 32 -7 -27 -9 -38 0 -68 -4 -68 -9 0 -4
-22 -12 -49 -19 -176 -42 -405 -164 -569 -305 -51 -43 -26 -33 62 26 93 61
179 106 251 129 67 21 163 40 173 33 5 -3 33 1 63 9 100 27 311 13 472 -32 60
-16 90 -38 40 -29 -15 3 -5 -1 22 -10 191 -57 294 -96 335 -124 14 -10 36 -21
50 -25 45 -13 252 -116 246 -122 -7 -7 103 -52 207 -84 57 -17 68 -23 52 -30
-16 -6 -13 -8 16 -8 34 -1 213 -57 276 -86 17 -8 42 -15 55 -16 12 0 32 -4 43
-9 16 -7 10 -9 -25 -10 -31 -2 -12 -6 60 -15 58 -7 143 -22 190 -33 153 -36
212 -42 492 -52 262 -10 282 -10 374 10 53 11 99 18 101 16 3 -2 -9 -7 -26
-11 -17 -4 -33 -11 -36 -16 -9 -13 3 -11 95 16 46 14 93 25 106 25 12 0 37 6
55 14 19 7 45 17 59 21 25 7 25 7 -4 -24 -34 -36 -27 -40 14 -11 35 25 135 70
155 70 9 0 12 -6 8 -16 -3 -10 10 -5 38 14 24 16 69 38 99 47 30 10 72 24 93
32 52 18 63 16 36 -7 -13 -10 -19 -19 -14 -20 6 0 26 13 45 30 19 16 40 29 46
30 5 0 30 15 54 32 42 31 45 26 11 -17 -9 -11 32 25 89 80 58 55 109 106 113
113 4 6 17 12 27 12 11 0 24 9 30 20 6 11 23 26 39 35 43 22 228 250 281 347
31 55 41 43 19 -21 -6 -18 -9 -34 -6 -37 2 -3 26 60 52 140 26 80 51 148 56
152 5 3 9 -36 10 -93 1 -120 12 -86 29 92 6 66 15 134 21 151 5 17 9 42 9 57
0 55 18 34 26 -31 l8 -67 8 70 c5 43 4 103 -3 155 -6 47 -9 108 -7 135 l3 50
22 -75 c18 -61 22 -69 22 -40 0 19 -10 75 -24 125 -30 109 -31 133 -3 80 32
-60 33 -25 3 61 -26 78 -55 199 -55 235 0 32 17 13 31 -36 7 -25 17 -45 22
-45 5 0 6 8 3 18 -2 9 -8 37 -11 62 -4 25 -18 74 -31 109 -29 76 -31 104 -3
42 11 -24 22 -41 25 -38 9 8 -24 114 -52 170 -14 27 -24 58 -22 70 3 17 7 14
32 -21 16 -23 31 -41 33 -38 2 2 -23 57 -56 122 -33 66 -63 130 -66 144 l-6
25 20 -24 c12 -13 21 -18 21 -12 0 23 -42 94 -79 134 -36 39 -99 147 -86 147
3 0 30 -18 60 -40 30 -22 55 -37 55 -32 0 5 -41 53 -91 108 -50 54 -98 113
-106 129 -9 17 -28 46 -42 65 -25 34 -25 35 -2 15 14 -11 39 -36 57 -55 25
-26 34 -30 34 -18 0 25 -105 134 -190 196 -71 53 -187 161 -158 149 137 -58
182 -76 186 -73 5 5 -135 88 -263 156 -53 28 -111 60 -129 71 l-31 20 35 -6
c19 -4 53 -13 75 -21 21 -7 41 -11 43 -9 11 11 -103 68 -202 101 -117 39 -249
96 -206 89 61 -10 187 -13 205 -5 19 8 19 9 -3 9 -13 1 -60 10 -104 21 -43 12
-102 25 -130 30 -28 6 -69 15 -92 21 l-40 11 24 15 25 14 -30 -7 c-49 -13 -92
-7 -168 22 -87 32 -103 44 -49 37 48 -6 192 6 192 16 0 4 -42 13 -92 20 -124
16 -319 56 -393 80 l-60 19 52 1 c59 1 203 27 214 38 5 5 -62 7 -148 5 -144
-3 -162 -1 -237 22 -45 14 -89 31 -98 38 -15 11 -6 13 60 15 153 5 216 25 110
36 -29 3 -100 12 -158 21 -93 15 -108 20 -132 46 -33 36 -44 102 -28 169 29
124 301 357 523 450 295 122 577 130 749 20 121 -78 298 -318 347 -474 25 -77
26 -79 29 -41 2 21 -7 87 -19 145 -28 134 -30 335 -5 456 43 198 169 361 353
454 122 62 300 79 445 42 167 -43 421 -208 490 -319 34 -55 32 -28 -4 45 -26
54 -64 99 -184 223 -172 177 -248 270 -330 402 -55 89 -123 225 -157 315 l-16
41 102 -40 c115 -45 137 -53 137 -45 0 9 -228 137 -244 137 -15 0 -36 95 -36
163 0 140 95 313 201 367 54 28 140 26 220 -4 35 -13 91 -26 123 -30 61 -7
136 -39 193 -82 45 -34 49 -30 13 16 -17 21 -88 84 -159 139 -269 210 -368
372 -339 557 12 77 47 142 119 219 160 170 351 243 614 233 l130 -6 -95 29
c-152 47 -323 62 -610 56 -238 -5 -345 -16 -594 -57 -304 -51 -568 -130 -774
-231 -215 -106 -545 -343 -790 -568 -115 -105 -185 -190 -249 -300 -26 -46
-54 -86 -62 -89 -24 -8 -7 91 26 158 16 33 26 60 22 60 -4 0 -30 -20 -57 -45
-36 -32 -55 -60 -66 -93 -29 -86 -20 -215 25 -354 27 -85 27 -226 0 -333 -21
-81 -120 -293 -148 -317 -9 -7 -2 10 16 38 97 159 134 283 135 454 1 146 -4
166 -35 149 -76 -40 -177 -171 -206 -268 -21 -72 -23 -73 -56 -56 -26 13 -27
13 -33 -12 -9 -36 7 -57 46 -61 l32 -3 -7 -97 c-9 -131 -31 -222 -86 -350 -23
-54 -23 -58 -1 -42 9 7 -34 -37 -96 -97 -110 -107 -236 -207 -310 -244 -44
-23 -149 -26 -177 -6 -16 13 -15 14 17 20 48 7 98 41 132 89 36 50 27 59 -20
19 -20 -18 -47 -37 -61 -42 -34 -13 -100 -11 -109 3 -5 8 -2 9 9 5 10 -4 30
-1 45 5 27 11 27 11 -17 19 -47 9 -64 19 -43 26 8 3 11 15 7 36 l-6 32 54 1
c53 0 107 23 162 69 20 16 20 16 -5 10 -56 -13 -160 -18 -160 -7 0 6 9 13 19
17 11 3 25 13 32 21 11 13 9 14 -16 8 l-29 -7 36 49 c41 55 54 63 61 37 2 -10
7 0 12 25 8 46 70 136 86 127 5 -4 18 13 28 37 11 24 20 36 21 28 0 -8 9 3 20
25 25 52 85 121 76 88 -17 -64 -12 -61 26 17 34 69 42 81 49 65 6 -16 8 -13 8
14 1 19 15 58 34 90 l32 56 3 -42 c2 -24 7 -43 11 -43 9 0 41 138 41 178 0 15
11 49 24 76 26 54 24 55 46 -42 19 -82 34 -77 26 9 -20 232 -20 228 -2 247 11
13 14 28 10 50 -10 51 3 37 15 -15 6 -27 22 -84 36 -128 22 -73 24 -76 24 -40
1 40 -22 186 -34 216 -5 14 -33 191 -29 186 30 -36 110 -148 127 -177 12 -22
25 -40 29 -40 29 0 -147 334 -199 379 -15 14 -27 29 -25 34 1 5 -7 25 -18 44
-11 20 -19 37 -18 39 2 2 33 -3 68 -10 56 -12 70 -19 102 -56 21 -23 38 -38
38 -32 0 5 -20 33 -45 60 -35 38 -71 63 -150 102 -58 29 -111 63 -120 76 -8
13 -41 37 -73 53 -51 27 -54 30 -28 31 16 0 57 5 91 12 52 9 71 8 109 -4 33
-11 43 -12 36 -3 -20 24 -144 46 -287 52 -79 3 -143 9 -143 13 0 11 157 81
225 101 l60 18 -46 0 c-53 1 -95 -11 -233 -68 -55 -23 -115 -41 -135 -41 l-35
0 34 30 c19 17 68 49 108 71 40 23 71 43 70 45 -2 2 -35 -6 -73 -18 -69 -20
-198 -81 -284 -134 -24 -15 -40 -21 -36 -13 27 44 87 119 122 150 22 20 44 42
48 50 15 24 -118 -75 -210 -158 -76 -67 -91 -77 -87 -56 3 14 59 81 131 156
144 149 188 216 255 387 36 89 54 122 83 148 30 27 33 32 16 32 -11 0 -38 -13
-61 -29z m-1052 -1166 c0 -14 -47 -75 -57 -75 -25 0 -14 49 15 64 29 16 42 19
42 11z m-120 -508 c0 -17 -10 -28 -35 -40 -20 -9 -43 -17 -52 -17 -14 0 -14 3
3 21 16 18 72 59 82 59 1 0 2 -10 2 -23z m4127 -129 c-3 -8 -6 -5 -6 6 -1 11
2 17 5 13 3 -3 4 -12 1 -19z m-2327 -532 c0 -2 -8 -10 -17 -17 -16 -13 -17
-12 -4 4 13 16 21 21 21 13z m-49 -64 c-11 -16 -28 -35 -38 -43 -9 -8 -2 5 17
29 38 48 52 57 21 14z m-61 -75 c0 -2 -10 -12 -22 -23 l-23 -19 19 23 c18 21
26 27 26 19z m-1993 -883 c-3 -3 -12 -4 -19 -1 -8 3 -5 6 6 6 11 1 17 -2 13
-5z m683 -1634 c0 -11 -2 -20 -4 -20 -7 0 -66 93 -66 104 1 20 70 -63 70 -84z
m1480 -311 c-6 -46 -7 -103 -4 -127 11 -76 89 -178 227 -297 49 -42 62 -60 78
-109 11 -33 16 -63 12 -66 -5 -4 -56 -37 -115 -74 -68 -42 -160 -115 -250
-197 -136 -123 -168 -145 -168 -116 0 26 -35 46 -103 57 -75 13 -123 44 -112
71 3 9 23 25 43 37 54 30 272 83 384 92 139 13 177 36 146 93 -18 35 -40 46
-85 47 -52 0 -52 5 -17 97 30 80 28 120 -11 206 -40 87 -54 203 -37 300 8 43
16 77 18 75 2 -3 -1 -42 -6 -89z m-50 0 c12 -23 20 -43 18 -45 -3 -2 -14 17
-26 41 -27 56 -20 60 8 4z m-499 -826 c13 -16 12 -17 -3 -4 -17 13 -22 21 -14
21 2 0 10 -8 17 -17z m-211 -127 c-19 -19 -46 -37 -60 -40 -18 -5 -15 -1 11
13 20 11 44 32 53 46 10 15 20 24 24 21 3 -4 -10 -22 -28 -40z m180 -329 c-13
-7 -30 -24 -37 -37 -13 -25 -13 -25 -13 -2 0 17 -6 22 -27 23 -20 1 -16 4 16
10 24 5 46 11 49 14 3 3 12 5 21 5 10 0 7 -5 -9 -13z m-66 -120 c-9 -26 -22
-47 -29 -47 -7 0 -25 -10 -41 -22 -21 -17 -14 -3 26 48 30 40 56 71 57 70 2
-2 -4 -24 -13 -49z"/>
<path d="M2853 6103 c-24 -9 -13 -32 33 -68 46 -34 77 -44 88 -27 6 10 -87
102 -100 101 -5 0 -15 -3 -21 -6z"/>
<path d="M3795 2949 c-8 -11 39 -59 58 -59 7 0 22 6 32 14 18 13 18 14 -5 26
-37 20 -79 29 -85 19z"/>
</g>
</svg>
