<?xml version="1.0" standalone="no"?>
<!DOCTYPE svg PUBLIC "-//W3C//DTD SVG 20010904//EN"
 "http://www.w3.org/TR/2001/REC-SVG-20010904/DTD/svg10.dtd">
<svg version="1.0" xmlns="http://www.w3.org/2000/svg"
 width="1024.000000pt" height="1024.000000pt" viewBox="0 0 1024.000000 1024.000000"
 preserveAspectRatio="xMidYMid meet">
<metadata>
Created by potrace 1.16, written by Peter Selinger 2001-2019
</metadata>
<g transform="translate(0.000000,1024.000000) scale(0.100000,-0.100000)"
fill="#000000" stroke="none">
<path d="M4675 9067 c-1 -137 -18 -228 -70 -373 -37 -102 -94 -218 -95 -192 0
22 36 207 45 231 4 9 4 17 1 17 -13 0 -70 -129 -107 -244 -22 -66 -43 -128
-45 -136 -4 -9 -15 11 -29 48 -22 62 -63 130 -93 154 -13 11 -14 10 -9 -7 17
-52 27 -134 22 -170 -12 -80 -16 -94 -29 -89 -8 3 -16 -16 -24 -55 -7 -33 -17
-63 -23 -67 -8 -4 -9 4 -4 25 4 18 3 31 -3 31 -5 0 -12 -12 -15 -27 -9 -40
-23 -57 -41 -50 -10 4 -16 18 -16 39 0 44 -16 26 -32 -37 -7 -27 -23 -61 -36
-75 -20 -22 -23 -32 -18 -80 5 -45 2 -64 -18 -105 -13 -27 -34 -61 -47 -73
-32 -32 -139 -93 -150 -86 -5 3 -9 0 -9 -7 0 -7 -3 -9 -7 -5 -4 3 -13 -4 -20
-16 l-12 -23 -1 23 c0 12 -4 22 -9 22 -16 0 -23 -56 -12 -97 14 -49 89 -171
136 -217 34 -35 73 -49 62 -23 -3 6 -8 19 -12 28 -8 20 19 49 45 49 13 0 17 5
14 14 -5 12 8 14 73 11 45 -2 64 -1 44 3 -43 9 -49 25 -16 40 32 15 62 15 70
2 3 -5 27 -10 53 -9 l47 1 -29 13 c-31 13 -47 40 -38 63 6 18 61 45 78 38 17
-7 20 -123 3 -159 -16 -36 -64 -60 -106 -54 -42 7 -41 -11 3 -33 16 -8 31 -16
33 -17 8 -5 -45 -44 -78 -58 -50 -22 -29 -31 24 -11 44 17 46 17 88 -3 24 -12
57 -21 73 -21 43 0 200 80 257 130 57 51 91 102 37 57 -47 -40 -98 -63 -155
-72 l-50 -7 60 44 c53 39 117 106 165 173 14 19 14 19 -5 4 -11 -8 -45 -36
-75 -61 -81 -67 -132 -90 -111 -49 6 10 13 33 16 51 7 42 60 115 101 141 35
21 218 53 259 44 14 -3 36 -7 50 -10 13 -3 31 -18 39 -33 15 -27 16 -27 22 -4
7 25 24 30 24 7 0 -23 18 -18 26 7 4 14 2 24 -5 26 -25 8 44 33 75 28 16 -4
52 0 79 8 55 17 62 15 143 -47 165 -126 223 -358 137 -553 -51 -116 -197 -221
-356 -258 -122 -29 -340 -125 -449 -199 -176 -120 -348 -308 -438 -482 -13
-25 -36 -49 -61 -63 l-41 -23 -1 63 0 63 -18 -60 c-10 -33 -31 -87 -48 -120
-17 -33 -36 -81 -43 -105 -14 -54 -83 -130 -117 -130 -27 0 -88 58 -125 120
-15 25 -32 52 -37 60 -5 8 -17 37 -26 64 -26 72 -64 109 -133 130 l-59 18 -74
-40 c-80 -44 -164 -72 -214 -72 -50 0 -71 -22 -78 -82 -6 -53 -9 -57 -68 -98
l-21 -16 31 -74 c29 -68 82 -140 103 -140 5 0 1 15 -8 33 -48 92 -33 155 53
218 51 38 93 56 93 41 0 -13 -33 -56 -57 -75 -29 -23 -30 -67 -3 -92 10 -9 25
-34 31 -54 23 -70 47 -106 87 -129 48 -27 61 -28 39 -4 -64 71 -61 205 6 241
38 20 47 7 47 -73 0 -84 9 -101 65 -120 24 -9 41 -21 44 -33 5 -30 43 -113 51
-113 4 0 9 44 12 98 5 128 14 142 44 63 51 -135 174 -261 254 -261 22 0 22 -2
18 -97 -18 -370 90 -669 324 -900 119 -118 176 -158 424 -299 28 -16 98 -58
156 -93 l106 -63 -14 -40 c-8 -22 -14 -54 -14 -70 0 -37 25 -96 53 -127 34
-36 115 -71 169 -71 36 0 50 -5 57 -19 6 -10 26 -37 46 -60 33 -40 34 -44 20
-64 -29 -41 -36 -89 -21 -145 7 -29 11 -52 9 -52 -2 0 -38 22 -81 49 -99 62
-154 89 -272 136 -117 46 -147 66 -155 108 -12 54 -42 92 -95 121 -55 30 -65
47 -76 126 -4 28 -14 59 -23 70 -22 25 -135 60 -194 60 -40 0 -53 4 -68 24
-49 62 -145 49 -200 -27 -35 -49 -31 -59 11 -23 22 18 43 26 69 26 39 0 59
-15 94 -72 14 -23 21 -26 55 -21 31 4 44 0 67 -19 l28 -25 -48 -13 c-38 -11
-58 -11 -99 -1 -108 26 -100 27 -155 -26 -47 -45 -51 -53 -50 -94 0 -24 4 -53
8 -64 7 -17 10 -14 19 19 25 87 71 98 147 35 27 -22 62 -47 77 -55 53 -27 26
-79 -37 -72 -19 2 -35 3 -35 1 0 -1 12 -14 27 -28 34 -30 77 -32 118 -5 18 12
47 20 72 20 37 0 47 -6 87 -47 25 -27 69 -92 97 -147 l51 -99 -11 -72 c-9 -52
-9 -85 -1 -119 6 -27 10 -73 9 -105 -1 -60 6 -84 44 -145 l24 -38 -5 78 c-4
77 -3 81 40 166 l44 86 59 -34 c33 -18 80 -36 105 -40 25 -3 54 -14 65 -24 34
-30 103 -60 138 -60 19 0 54 7 77 15 23 8 44 15 46 15 2 0 4 -17 5 -37 1 -21
4 -49 8 -63 l7 -24 20 29 c11 17 38 62 59 100 20 39 54 87 73 108 30 31 43 37
78 37 23 0 60 6 82 14 40 14 42 14 79 -16 120 -97 283 -119 460 -63 l73 23 10
-37 c29 -110 34 -157 34 -296 -2 -251 -64 -452 -207 -672 -37 -57 -47 -65 -91
-78 -27 -8 -68 -15 -89 -15 -57 0 -170 21 -160 29 4 4 36 16 71 26 35 10 65
21 67 25 4 6 -264 30 -340 30 -22 0 -65 -6 -95 -14 -30 -8 -56 -13 -58 -11 -8
7 53 39 96 51 46 12 46 13 -54 13 -55 1 -147 -6 -204 -14 -78 -12 -115 -13
-151 -6 -149 32 -226 84 -562 378 -246 214 -441 305 -687 320 -284 17 -545
-119 -665 -348 -50 -95 -68 -183 -62 -299 11 -217 115 -388 358 -591 210 -176
267 -213 417 -270 34 -13 62 -28 62 -33 0 -5 -70 -7 -166 -3 -219 7 -270 -1
-448 -68 -82 -31 -173 -62 -202 -68 -30 -6 -54 -15 -54 -19 0 -13 1401 -10
1439 3 24 8 57 8 134 -2 129 -16 447 -16 597 0 260 28 471 81 724 182 258 103
386 178 582 340 89 73 100 79 143 80 l46 1 -31 11 -32 12 80 100 c90 114 202
279 213 313 4 13 8 22 10 20 5 -4 -12 -137 -20 -163 -4 -14 -2 -12 9 5 9 14
25 57 37 95 12 39 30 79 41 91 26 29 58 116 59 162 l0 37 15 -40 c9 -22 22
-71 29 -110 l15 -70 -5 115 c-3 63 -12 147 -20 185 -13 57 -13 78 -4 113 15
55 28 38 30 -38 1 -43 3 -49 9 -30 l8 25 1 -27 c1 -15 5 -29 10 -32 13 -8 23
118 11 149 -17 46 -10 51 20 15 17 -19 30 -32 30 -29 0 4 -16 41 -36 83 -25
54 -34 88 -32 114 l3 37 54 -75 c58 -82 59 -70 0 58 -29 62 -39 97 -39 134 l0
50 40 -51 c22 -28 43 -51 45 -51 3 0 -14 39 -39 88 -24 48 -46 105 -50 127
l-7 40 28 -35 c15 -19 41 -48 57 -65 32 -34 35 -40 -49 100 -26 44 -50 85 -53
90 -7 12 21 -8 68 -49 38 -34 29 -20 -42 67 -27 32 -48 66 -48 77 0 10 -3 27
-7 37 -13 37 54 -38 92 -103 21 -35 40 -62 43 -60 9 10 -97 211 -133 253 -38
45 -39 63 -2 63 41 0 97 -50 146 -130 11 -19 21 -28 21 -19 0 21 -65 128 -102
166 -19 19 -27 36 -22 44 5 8 -10 28 -42 57 -45 41 -46 42 -9 17 22 -15 58
-44 79 -64 l39 -36 -20 33 c-29 48 -121 141 -172 174 -62 39 -37 35 30 -5 30
-18 61 -37 69 -41 8 -5 -5 12 -29 37 -25 26 -74 63 -110 82 -140 76 -163 109
-43 60 73 -30 79 -30 61 -8 -11 13 -4 11 26 -6 l40 -23 -40 37 c-45 40 -167
103 -265 135 -68 23 -183 80 -176 87 3 3 28 -2 58 -11 55 -16 217 -33 207 -22
-3 3 -23 13 -45 21 l-39 15 43 -6 c23 -3 42 -3 42 -1 0 14 -140 49 -218 56
-48 4 -80 10 -72 13 8 3 37 14 64 23 39 14 45 20 32 27 -24 13 -161 38 -213
38 -51 0 -53 12 -9 44 23 17 42 21 111 21 58 0 78 3 67 9 -21 12 -161 14 -221
3 -39 -7 -43 -6 -31 8 17 20 7 19 -41 -6 -23 -11 -43 -18 -45 -16 -7 7 62 47
125 73 48 20 52 24 26 24 -16 0 -77 -11 -134 -25 -57 -14 -106 -24 -108 -21
-2 2 12 14 32 26 20 12 34 24 32 26 -2 2 -34 -8 -72 -21 -106 -39 -143 -30
-62 15 23 13 51 30 62 38 19 13 19 14 -7 8 -14 -3 -34 -9 -45 -13 -16 -6 -16
-5 -4 10 9 12 10 17 2 17 -8 0 -9 5 -1 19 17 33 12 35 -22 9 -18 -14 -44 -27
-58 -31 l-25 -6 28 20 c32 25 37 46 5 25 -26 -16 -189 -69 -195 -63 -2 2 18
12 44 22 54 20 150 72 158 85 3 5 -15 0 -41 -11 -55 -25 -175 -59 -206 -59
-28 0 -190 60 -203 76 -15 18 -126 116 -162 144 l-32 25 132 -2 132 -2 -105
15 c-98 13 -109 17 -174 62 -38 26 -87 64 -110 85 l-41 37 72 -37 c81 -41 105
-40 42 1 -22 15 -39 29 -37 30 1 2 43 -1 93 -6 121 -12 145 -6 58 14 -76 18
-180 65 -202 92 -10 12 -2 11 35 -6 27 -11 60 -28 74 -37 43 -27 7 11 -56 60
-30 23 -52 44 -50 47 3 2 -10 23 -28 46 -134 165 -125 411 23 613 l30 41 49
-18 c27 -11 85 -22 128 -26 117 -10 138 -21 153 -80 7 -27 26 -79 43 -116 23
-52 29 -75 24 -101 -7 -40 -19 -51 -61 -61 -16 -4 -45 -19 -63 -33 -32 -24
-37 -25 -73 -13 -49 16 -61 7 -107 -83 -28 -53 -33 -73 -30 -118 l3 -54 32 67
c36 76 69 101 104 79 11 -6 28 -9 38 -6 26 8 34 -20 16 -55 -23 -44 -19 -60
28 -105 l44 -42 -5 -81 c-2 -45 -2 -82 1 -82 15 0 56 116 67 190 12 78 42 150
63 150 4 0 5 -34 1 -75 -6 -68 -5 -78 13 -98 22 -23 36 -113 35 -215 0 -33 4
-50 10 -46 17 11 48 87 48 120 0 19 9 39 24 53 15 14 29 45 37 81 13 58 13 59
31 40 12 -12 32 -20 52 -20 30 0 34 -3 40 -33 3 -18 15 -50 27 -71 15 -29 21
-60 22 -112 2 -54 5 -70 14 -63 16 14 43 96 43 131 0 16 7 43 16 59 14 28 14
35 -5 90 -12 36 -18 72 -14 93 3 18 0 43 -6 54 -20 37 -42 42 -99 22 -28 -10
-54 -15 -56 -11 -3 4 -14 61 -26 127 -15 84 -19 138 -14 184 13 141 35 261 59
328 14 38 25 72 25 75 0 4 -16 -3 -35 -15 -20 -11 -37 -19 -39 -17 -2 2 18 49
45 104 27 55 49 104 49 109 0 4 -25 -15 -57 -44 -81 -74 -121 -103 -133 -95
-16 10 -12 29 15 69 29 42 24 44 -30 11 -22 -14 -43 -25 -46 -25 -3 0 -15 13
-26 29 l-22 28 23 62 c13 37 37 76 61 101 21 22 40 38 41 37 2 -2 -3 -30 -11
-62 -7 -33 -12 -61 -11 -63 3 -3 38 80 66 155 6 17 23 42 37 55 24 21 25 21
20 3 -11 -41 -18 -95 -12 -95 9 0 55 102 55 122 0 9 5 20 12 24 8 5 9 -3 5
-31 -8 -51 7 -33 26 30 l16 50 0 -99 c1 -55 4 -96 8 -92 4 4 13 46 19 94 8 57
12 73 13 47 1 -30 4 -36 11 -24 5 9 11 73 14 143 2 71 7 130 10 133 6 6 15
-27 20 -72 2 -16 5 -32 6 -35 4 -10 18 46 20 80 1 28 3 31 9 15 15 -37 20 35
9 112 -6 46 -7 82 -1 100 l10 28 16 -32 c11 -20 17 -56 17 -97 0 -67 12 -93
25 -53 4 12 10 69 14 127 l6 105 23 -35 c19 -31 22 -32 22 -12 0 12 -15 51
-32 85 -18 34 -35 66 -37 71 -2 5 10 0 26 -12 17 -12 40 -41 51 -64 l21 -43 1
31 c0 44 -18 93 -51 136 -18 23 -29 49 -29 69 0 101 -45 227 -109 303 -9 12
-11 16 -3 12 7 -5 27 -26 43 -48 16 -23 29 -37 29 -31 0 20 -60 102 -112 154
-31 30 -61 64 -67 77 -12 23 -12 23 11 11 29 -16 108 -78 130 -104 29 -33 20
-1 -12 43 -16 23 -44 49 -61 57 -17 9 -28 19 -25 22 7 7 66 -30 93 -59 12 -13
38 -50 57 -82 20 -33 36 -54 36 -48 0 21 -28 80 -59 126 -19 27 -26 46 -20 48
21 7 -114 110 -196 151 -70 34 -73 42 -8 21 16 -5 16 -4 -2 11 -11 10 -38 26
-60 37 l-40 19 45 -5 45 -5 -43 19 c-24 11 -68 27 -98 36 -29 8 -57 20 -60 26
-4 6 1 8 16 3 12 -4 54 -13 94 -19 39 -7 85 -20 102 -29 43 -22 102 -93 116
-139 6 -21 15 -38 19 -38 9 0 -11 61 -34 107 -19 37 -86 98 -154 142 -29 18
-53 37 -53 41 0 10 -47 29 -112 45 -33 8 -44 13 -28 14 14 1 33 8 43 15 16 12
15 15 -17 30 -19 9 -47 17 -63 18 -15 1 10 4 57 7 l85 6 -75 14 c-41 8 -100
17 -130 21 l-55 6 45 12 c72 19 143 59 190 107 l44 45 -79 -40 c-60 -31 -119
-49 -235 -75 -85 -19 -159 -34 -165 -34 -18 0 69 42 124 59 l54 17 -51 7 c-46
6 -80 4 -165 -9 l-28 -5 24 33 c12 17 29 46 37 62 8 17 26 43 40 59 l25 29
-33 -24 c-106 -77 -129 -90 -175 -104 -28 -8 -51 -14 -53 -12 -1 1 1 17 3 35
5 28 16 39 88 82 116 70 125 89 14 31 -52 -27 -105 -52 -119 -56 -23 -6 -22
-4 10 24 39 33 33 42 -8 12 -28 -20 -187 -101 -198 -101 -3 0 16 24 42 53 92
101 179 255 207 367 18 68 31 214 17 185 -5 -11 -23 -56 -40 -101 -40 -106
-134 -248 -211 -318 -61 -54 -139 -101 -159 -94 -5 1 4 29 20 61 24 44 110
285 110 306 0 2 -30 -41 -66 -95 -77 -116 -166 -235 -171 -230 -2 2 17 36 41
76 54 88 188 390 172 390 -2 0 -20 -26 -41 -57 -21 -32 -74 -103 -119 -158
-187 -234 -176 -225 -151 -120 23 94 20 278 -6 361 -11 38 -24 72 -27 76 -4 4
-7 -48 -7 -115z m563 -603 c-21 -19 -43 -34 -50 -34 -7 1 7 19 31 41 24 21 47
37 50 33 3 -3 -11 -21 -31 -40z m172 -3 c-22 -43 -102 -82 -141 -69 -9 3 109
71 149 87 1 1 -2 -8 -8 -18z m45 -81 c-27 -12 -43 -12 -25 0 8 5 22 9 30 9 10
0 8 -3 -5 -9z m298 -97 c-7 -2 -21 -2 -30 0 -10 3 -4 5 12 5 17 0 24 -2 18 -5z
m207 -163 c38 -21 28 -26 -17 -9 -15 6 -55 14 -88 19 l-60 7 65 1 c46 1 75 -4
100 -18z m-900 -270 c12 -8 11 -10 -7 -10 -12 0 -25 5 -28 10 -8 13 15 13 35
0z m1057 -6 c-3 -3 -12 -4 -19 -1 -8 3 -5 6 6 6 11 1 17 -2 13 -5z m-972 -24
c4 -6 -10 -10 -35 -10 -25 0 -39 4 -35 10 3 6 19 10 35 10 16 0 32 -4 35 -10z
m-165 -31 c0 -5 -9 -9 -20 -9 -11 0 -20 6 -20 14 0 9 7 12 20 9 11 -3 20 -9
20 -14z m-140 -9 c11 -8 7 -9 -15 -4 -37 8 -45 14 -19 14 10 0 26 -5 34 -10z
m1441 -325 l10 -20 -16 20 c-9 11 -21 29 -26 40 l-10 20 16 -20 c9 -11 21 -29
26 -40z m24 -366 c9 -17 15 -33 13 -35 -3 -2 -12 12 -21 31 -21 43 -13 47 8 4z
m-506 -843 c-10 -37 -11 -37 -30 -20 -19 17 -19 18 8 40 15 12 29 21 30 20 1
-1 -2 -19 -8 -40z m-479 -1023 c0 -10 -53 33 -62 51 -7 13 2 8 25 -14 21 -19
37 -36 37 -37z m260 -500 c0 -9 -57 27 -75 48 -14 16 -7 13 28 -11 26 -18 47
-35 47 -37z m1058 -380 c-32 -2 -84 -2 -115 0 -32 2 -6 3 57 3 63 0 89 -1 58
-3z m407 -561 c-3 -3 -11 0 -18 7 -9 10 -8 11 6 5 10 -3 15 -9 12 -12z m55
-28 c0 -2 -9 0 -20 6 -11 6 -20 13 -20 16 0 2 9 0 20 -6 11 -6 20 -13 20 -16z
m23 -34 c9 0 17 -3 17 -8 0 -4 -18 -6 -40 -4 -22 2 -40 9 -40 14 0 6 10 8 23
4 12 -3 30 -6 40 -6z m-3123 -1057 c159 -45 262 -108 525 -319 180 -144 257
-194 450 -293 71 -36 148 -85 189 -120 39 -33 119 -85 179 -117 68 -36 120
-71 138 -93 16 -20 29 -38 29 -42 0 -8 -104 -52 -200 -84 -211 -72 -432 -108
-660 -109 -91 0 -177 3 -193 7 l-27 7 25 46 c29 52 30 55 10 48 -8 -3 -17 -14
-20 -25 -3 -10 -21 -28 -38 -40 l-32 -22 34 36 c30 31 32 37 15 37 -10 0 -50
-14 -89 -30 -38 -17 -73 -30 -77 -30 -5 0 -17 15 -28 33 l-20 32 0 -27 c0 -25
-2 -26 -37 -21 -21 3 -54 11 -73 18 l-34 12 44 7 c54 9 37 26 -26 26 -28 0
-52 9 -80 28 -21 16 -57 39 -79 51 l-40 23 26 -24 c14 -12 39 -33 55 -46 20
-16 23 -21 9 -16 -11 3 -31 9 -45 12 -14 2 -42 21 -64 41 l-38 36 16 -32 c21
-43 11 -43 -79 1 -145 69 -306 197 -380 301 -25 34 -45 68 -45 74 0 6 -5 11
-11 11 -8 0 -10 16 -6 53 l6 52 -19 -25 c-27 -35 -25 -9 5 50 32 62 32 73 0
35 -13 -17 -24 -24 -25 -16 0 27 24 96 41 116 24 29 49 81 48 102 0 12 -6 7
-15 -14 -14 -34 -43 -60 -31 -29 4 10 7 26 7 36 0 11 15 26 37 37 20 11 38 24
40 30 2 6 -13 3 -33 -8 -21 -10 -40 -17 -42 -14 -8 7 38 73 73 104 140 123
361 159 585 94z m3055 -310 c-4 -21 -11 -45 -16 -53 -9 -15 -8 -4 6 65 9 40
18 29 10 -12z m-1060 -332 c-6 -5 -21 -12 -35 -15 l-25 -7 25 15 c28 17 50 21
35 7z m-185 -166 c0 -2 -11 -12 -25 -21 -22 -14 -29 -15 -58 -3 l-32 14 35 6
c46 8 80 10 80 4z m-210 -89 l65 -12 -55 -32 c-64 -37 -80 -39 -80 -12 0 12
-7 35 -16 52 -15 29 -15 31 2 23 11 -4 48 -13 84 -19z"/>
</g>
</svg>
